<?xml version="1.0" encoding="UTF-8"?>
<svg xmlns="http://www.w3.org/2000/svg" height="904" width="904" class="pyqrcode"><path transform="scale(8)" stroke="#000" class="pyqrline" d="M4 4.5h7m1 0h2m2 0h1m3 0h3m1 0h2m1 0h1m1 0h2m2 0h1m2 0h3m2 0h1m2 0h2m1 0h4m3 0h1m1 0h1m2 0h2m2 0h1m1 0h2m1 0h1m3 0h3m2 0h1m3 0h1m5 0h2m1 0h1m5 0h3m3 0h7m-105 1h1m5 0h1m1 0h1m1 0h1m3 0h1m1 0h2m1 0h1m1 0h5m2 0h1m3 0h1m1 0h1m4 0h1m1 0h1m1 0h1m2 0h3m1 0h1m1 0h1m2 0h3m5 0h1m1 0h1m2 0h2m3 0h1m1 0h2m1 0h1m4 0h1m1 0h1m2 0h1m1 0h1m1 0h3m3 0h1m5 0h1m-105 1h1m1 0h3m1 0h1m1 0h3m1 0h5m2 0h2m2 0h2m4 0h1m1 0h1m3 0h1m3 0h1m2 0h1m1 0h1m2 0h1m2 0h1m3 0h1m1 0h1m1 0h1m7 0h7m1 0h2m5 0h6m2 0h1m3 0h3m2 0h1m1 0h3m1 0h1m-105 1h1m1 0h3m1 0h1m5 0h1m1 0h3m1 0h1m1 0h5m1 0h2m1 0h1m3 0h1m1 0h2m3 0h2m1 0h1m6 0h4m1 0h1m1 0h2m1 0h1m4 0h1m1 0h2m1 0h3m1 0h2m2 0h1m1 0h1m3 0h2m3 0h2m1 0h2m2 0h1m1 0h1m1 0h3m1 0h1m-105 1h1m1 0h3m1 0h1m3 0h5m1 0h1m1 0h2m1 0h1m1 0h6m4 0h2m1 0h1m3 0h1m1 0h1m2 0h1m1 0h8m2 0h3m1 0h2m5 0h1m1 0h9m2 0h5m1 0h1m3 0h1m1 0h1m1 0h2m1 0h1m1 0h3m1 0h1m-105 1h1m5 0h1m1 0h9m3 0h2m2 0h1m3 0h2m1 0h1m1 0h1m2 0h1m9 0h1m1 0h1m3 0h5m1 0h1m1 0h2m4 0h1m1 0h1m3 0h1m3 0h3m1 0h2m3 0h1m1 0h4m1 0h2m1 0h1m2 0h1m5 0h1m-105 1h7m1 0h1m1 0h1m1 0h1m1 0h1m1 0h1m1 0h1m1 0h1m1 0h1m1 0h1m1 0h1m1 0h1m1 0h1m1 0h1m1 0h1m1 0h1m1 0h1m1 0h1m1 0h1m1 0h1m1 0h1m1 0h1m1 0h1m1 0h1m1 0h1m1 0h1m1 0h1m1 0h1m1 0h1m1 0h1m1 0h1m1 0h1m1 0h1m1 0h1m1 0h1m1 0h1m1 0h1m1 0h1m1 0h1m1 0h1m1 0h1m1 0h1m1 0h1m1 0h1m1 0h1m1 0h1m1 0h7m-97 1h1m2 0h5m1 0h1m2 0h1m3 0h1m3 0h4m3 0h1m1 0h1m6 0h2m1 0h2m3 0h1m2 0h1m7 0h1m1 0h1m1 0h4m1 0h1m3 0h2m3 0h7m3 0h1m2 0h1m-93 1h3m1 0h1m1 0h1m1 0h2m1 0h7m2 0h7m1 0h2m1 0h1m2 0h5m2 0h2m2 0h6m2 0h1m1 0h1m6 0h4m2 0h10m1 0h2m1 0h3m2 0h1m2 0h2m1 0h5m2 0h3m-104 1h3m3 0h2m2 0h1m1 0h1m2 0h1m4 0h3m1 0h2m1 0h2m3 0h4m2 0h2m3 0h2m2 0h1m4 0h1m4 0h1m4 0h1m5 0h2m1 0h1m1 0h1m1 0h1m1 0h5m1 0h1m1 0h1m3 0h2m2 0h3m3 0h2m1 0h2m-104 1h1m3 0h3m1 0h1m2 0h2m3 0h2m1 0h4m1 0h2m3 0h1m2 0h3m1 0h1m2 0h1m4 0h1m2 0h1m3 0h1m1 0h2m1 0h1m1 0h6m1 0h1m1 0h1m1 0h1m1 0h1m2 0h7m3 0h1m1 0h2m1 0h1m2 0h1m1 0h3m3 0h2m-98 1h1m2 0h2m1 0h3m1 0h3m2 0h1m1 0h3m1 0h4m3 0h3m2 0h1m1 0h2m1 0h1m1 0h5m1 0h2m4 0h1m1 0h1m1 0h3m1 0h2m1 0h2m4 0h1m7 0h5m7 0h3m3 0h3m-103 1h12m6 0h1m2 0h1m2 0h1m3 0h2m2 0h1m1 0h3m4 0h1m1 0h2m4 0h2m3 0h1m1 0h2m1 0h1m1 0h2m5 0h2m3 0h3m8 0h1m2 0h2m1 0h1m2 0h1m1 0h3m1 0h1m-97 1h2m5 0h2m1 0h1m6 0h3m2 0h1m2 0h8m1 0h1m1 0h1m1 0h1m6 0h11m2 0h2m1 0h1m2 0h2m2 0h4m3 0h1m2 0h2m1 0h1m2 0h1m1 0h1m1 0h2m4 0h1m2 0h1m1 0h3m-104 1h1m1 0h1m1 0h5m2 0h1m1 0h1m2 0h4m1 0h1m4 0h1m1 0h1m2 0h1m1 0h2m1 0h1m1 0h3m1 0h4m3 0h1m4 0h4m1 0h2m1 0h2m4 0h1m2 0h2m2 0h1m1 0h1m1 0h1m2 0h1m3 0h2m1 0h3m6 0h1m1 0h1m1 0h1m-104 1h1m1 0h2m3 0h1m2 0h1m1 0h3m3 0h1m2 0h2m2 0h2m1 0h1m3 0h1m6 0h3m1 0h1m2 0h8m1 0h1m1 0h1m1 0h1m4 0h2m2 0h1m2 0h2m1 0h1m4 0h1m1 0h2m1 0h4m5 0h3m1 0h1m1 0h1m1 0h2m-103 1h1m1 0h1m1 0h4m3 0h2m5 0h2m1 0h2m1 0h4m1 0h2m3 0h5m3 0h2m1 0h1m2 0h1m2 0h1m5 0h2m1 0h2m1 0h3m3 0h1m1 0h1m1 0h1m3 0h2m1 0h1m3 0h1m2 0h2m2 0h1m1 0h1m2 0h1m2 0h1m1 0h1m1 0h1m-104 1h2m5 0h1m1 0h1m1 0h1m3 0h2m1 0h1m2 0h2m1 0h2m9 0h1m1 0h2m1 0h3m1 0h2m1 0h1m1 0h2m6 0h2m3 0h1m2 0h9m1 0h1m1 0h5m2 0h3m4 0h1m1 0h1m2 0h1m3 0h3m1 0h1m-102 1h4m3 0h2m4 0h2m1 0h1m1 0h1m1 0h1m1 0h1m1 0h1m1 0h1m2 0h1m1 0h1m1 0h7m2 0h3m1 0h1m1 0h1m1 0h1m3 0h2m4 0h1m2 0h2m3 0h3m1 0h7m5 0h2m1 0h1m1 0h1m3 0h1m4 0h3m-103 1h5m4 0h1m5 0h1m2 0h3m1 0h1m2 0h6m1 0h1m4 0h1m1 0h1m3 0h1m1 0h1m2 0h4m2 0h1m1 0h1m1 0h1m1 0h2m1 0h1m4 0h2m1 0h4m3 0h1m1 0h7m1 0h1m1 0h1m2 0h1m2 0h1m1 0h1m1 0h3m-104 1h2m1 0h1m2 0h3m1 0h1m1 0h1m1 0h3m1 0h3m1 0h1m1 0h3m1 0h1m3 0h3m1 0h5m1 0h1m3 0h2m1 0h3m2 0h1m1 0h1m1 0h4m1 0h2m2 0h1m1 0h2m10 0h1m1 0h2m2 0h2m1 0h1m2 0h1m1 0h4m4 0h1m-103 1h3m3 0h2m1 0h1m1 0h1m1 0h1m1 0h2m2 0h1m1 0h1m4 0h1m2 0h2m1 0h2m1 0h3m1 0h5m4 0h1m1 0h1m1 0h1m4 0h1m4 0h1m2 0h2m4 0h1m8 0h5m1 0h1m1 0h1m3 0h1m1 0h1m3 0h2m2 0h2m-104 1h2m3 0h2m1 0h3m2 0h2m2 0h2m4 0h10m3 0h3m1 0h2m3 0h6m1 0h1m1 0h1m1 0h2m3 0h2m1 0h3m3 0h1m3 0h2m1 0h1m1 0h2m1 0h1m1 0h1m1 0h6m2 0h1m7 0h1m-103 1h1m5 0h2m1 0h3m2 0h1m2 0h2m1 0h2m3 0h2m3 0h3m2 0h1m1 0h3m1 0h5m2 0h1m4 0h1m2 0h6m2 0h1m2 0h1m1 0h1m1 0h3m6 0h2m1 0h1m1 0h2m3 0h1m1 0h2m2 0h1m4 0h3m-101 1h7m2 0h1m1 0h2m4 0h1m1 0h6m1 0h1m2 0h2m2 0h1m1 0h1m2 0h3m1 0h7m2 0h1m1 0h1m2 0h3m2 0h3m1 0h1m2 0h6m1 0h2m2 0h1m3 0h1m7 0h6m-101 1h3m1 0h1m3 0h1m1 0h1m1 0h1m3 0h1m1 0h1m3 0h1m1 0h1m3 0h2m7 0h1m3 0h1m2 0h3m1 0h1m3 0h5m1 0h2m2 0h1m2 0h2m2 0h2m1 0h1m3 0h2m1 0h3m2 0h1m4 0h2m5 0h1m3 0h1m1 0h3m-103 1h3m1 0h1m1 0h1m1 0h1m1 0h2m2 0h1m1 0h3m2 0h2m1 0h1m1 0h5m6 0h4m3 0h3m1 0h1m1 0h2m2 0h1m2 0h1m4 0h2m1 0h1m1 0h1m2 0h1m1 0h1m1 0h6m1 0h1m3 0h4m2 0h1m1 0h2m1 0h1m1 0h1m1 0h1m-103 1h2m2 0h1m3 0h6m1 0h2m1 0h2m1 0h2m1 0h1m3 0h2m4 0h2m1 0h2m1 0h4m4 0h1m3 0h1m1 0h2m1 0h1m3 0h1m2 0h3m1 0h1m1 0h1m1 0h1m3 0h1m4 0h2m1 0h3m2 0h1m1 0h1m2 0h3m3 0h3m-103 1h3m1 0h5m1 0h2m1 0h2m2 0h1m2 0h1m3 0h6m2 0h2m4 0h2m1 0h1m2 0h2m1 0h6m1 0h1m1 0h3m2 0h1m1 0h2m1 0h1m5 0h7m3 0h1m1 0h1m4 0h1m2 0h3m1 0h7m-102 1h1m7 0h3m1 0h2m3 0h3m1 0h1m6 0h1m1 0h1m1 0h2m8 0h2m6 0h2m3 0h2m3 0h1m3 0h4m2 0h2m6 0h1m1 0h2m1 0h1m4 0h1m2 0h2m2 0h1m1 0h1m3 0h1m1 0h1m-105 1h1m1 0h1m1 0h5m1 0h3m1 0h2m1 0h1m4 0h1m1 0h1m10 0h3m2 0h1m4 0h2m1 0h1m1 0h1m1 0h1m1 0h1m2 0h1m1 0h4m2 0h1m1 0h1m4 0h1m2 0h1m1 0h4m1 0h2m1 0h1m3 0h5m1 0h1m1 0h1m1 0h2m2 0h1m-103 1h1m1 0h1m1 0h1m1 0h1m1 0h3m2 0h1m1 0h1m2 0h2m5 0h1m1 0h1m3 0h5m1 0h2m1 0h1m2 0h3m1 0h2m1 0h6m1 0h4m1 0h3m2 0h6m1 0h2m2 0h1m1 0h1m1 0h2m1 0h2m5 0h1m3 0h1m3 0h2m1 0h1m-105 1h2m1 0h1m2 0h1m2 0h1m1 0h2m1 0h2m4 0h1m2 0h1m1 0h1m1 0h2m2 0h1m1 0h2m1 0h1m4 0h1m1 0h7m2 0h2m1 0h5m1 0h3m1 0h2m2 0h1m4 0h2m2 0h1m2 0h1m8 0h1m8 0h2m2 0h2m-104 1h1m3 0h1m4 0h1m1 0h1m1 0h1m1 0h1m1 0h4m3 0h1m2 0h1m1 0h1m2 0h5m2 0h2m1 0h2m1 0h1m1 0h1m2 0h5m1 0h1m5 0h2m2 0h1m2 0h1m7 0h1m4 0h1m3 0h1m1 0h3m1 0h6m4 0h2m-105 1h4m2 0h2m3 0h1m1 0h1m1 0h1m2 0h2m3 0h5m5 0h1m1 0h3m6 0h4m2 0h1m2 0h1m1 0h1m1 0h2m1 0h4m1 0h1m1 0h2m2 0h1m4 0h1m1 0h4m1 0h1m1 0h1m1 0h1m2 0h3m4 0h2m1 0h4m-104 1h4m1 0h1m2 0h2m4 0h5m2 0h1m2 0h3m3 0h3m4 0h1m1 0h2m2 0h1m1 0h1m2 0h2m3 0h1m2 0h1m2 0h1m2 0h2m1 0h1m3 0h5m2 0h2m1 0h1m3 0h2m1 0h2m1 0h1m3 0h4m2 0h1m1 0h3m-104 1h4m2 0h2m1 0h6m3 0h3m1 0h4m1 0h5m1 0h1m1 0h4m1 0h1m2 0h3m4 0h7m1 0h2m4 0h1m1 0h4m2 0h4m2 0h4m5 0h1m2 0h1m4 0h1m3 0h1m1 0h1m1 0h1m-103 1h3m1 0h1m1 0h1m1 0h1m1 0h1m1 0h2m1 0h2m1 0h2m1 0h2m2 0h2m1 0h4m2 0h1m1 0h3m1 0h3m1 0h3m6 0h1m2 0h1m1 0h1m1 0h3m1 0h2m3 0h1m1 0h1m2 0h1m2 0h1m4 0h1m1 0h1m2 0h3m2 0h4m2 0h1m2 0h1m1 0h1m-104 1h1m3 0h2m2 0h1m1 0h1m2 0h2m5 0h3m4 0h3m1 0h1m4 0h2m2 0h2m1 0h1m6 0h2m1 0h4m1 0h4m1 0h3m2 0h1m2 0h4m1 0h2m4 0h1m1 0h1m2 0h3m1 0h2m1 0h1m1 0h1m1 0h2m2 0h1m-101 1h1m1 0h1m3 0h4m1 0h1m1 0h1m1 0h2m1 0h1m1 0h1m9 0h1m2 0h2m3 0h1m1 0h1m1 0h4m1 0h1m1 0h3m1 0h1m2 0h2m1 0h5m1 0h4m1 0h1m1 0h2m2 0h6m1 0h2m3 0h1m1 0h2m3 0h1m3 0h2m-104 1h7m1 0h1m2 0h2m2 0h2m2 0h1m2 0h1m2 0h2m6 0h2m1 0h2m1 0h1m1 0h4m2 0h8m2 0h1m1 0h1m1 0h1m1 0h1m4 0h3m1 0h1m1 0h1m3 0h1m1 0h1m4 0h1m1 0h3m1 0h1m1 0h2m2 0h1m1 0h3m1 0h1m-104 1h4m1 0h1m2 0h3m1 0h1m5 0h1m2 0h2m1 0h1m3 0h2m1 0h1m1 0h1m7 0h3m1 0h1m1 0h1m3 0h1m2 0h1m2 0h1m1 0h2m2 0h1m2 0h6m3 0h2m1 0h3m2 0h3m1 0h2m2 0h1m1 0h2m3 0h1m1 0h1m1 0h3m-105 1h4m1 0h2m2 0h1m2 0h1m1 0h5m4 0h1m3 0h2m1 0h1m3 0h2m2 0h1m2 0h1m1 0h2m3 0h1m3 0h3m2 0h1m6 0h3m1 0h2m1 0h1m4 0h4m1 0h1m1 0h1m1 0h1m1 0h3m1 0h1m1 0h1m1 0h3m1 0h2m1 0h1m-101 1h3m2 0h1m1 0h1m1 0h1m5 0h2m1 0h1m5 0h1m1 0h5m3 0h3m1 0h1m1 0h1m3 0h1m1 0h1m1 0h1m4 0h2m1 0h1m1 0h1m1 0h1m2 0h2m3 0h2m1 0h1m2 0h2m3 0h4m1 0h2m2 0h2m2 0h1m1 0h1m1 0h1m2 0h2m1 0h1m-104 1h2m2 0h2m2 0h1m1 0h2m3 0h4m1 0h1m2 0h3m7 0h1m4 0h3m3 0h3m1 0h2m1 0h1m1 0h2m1 0h2m1 0h3m1 0h1m3 0h2m2 0h3m3 0h2m1 0h1m1 0h3m1 0h3m2 0h1m1 0h3m4 0h2m1 0h1m-104 1h1m1 0h3m1 0h2m1 0h1m1 0h1m1 0h1m1 0h5m1 0h2m3 0h2m1 0h2m1 0h1m2 0h1m3 0h1m4 0h2m1 0h4m1 0h1m4 0h4m1 0h4m5 0h2m1 0h1m1 0h2m5 0h1m1 0h1m5 0h2m1 0h2m1 0h1m2 0h1m2 0h1m-105 1h2m2 0h1m1 0h1m3 0h3m1 0h3m1 0h3m2 0h2m1 0h2m2 0h3m2 0h2m5 0h2m2 0h1m1 0h2m3 0h1m5 0h5m3 0h2m3 0h1m2 0h1m1 0h2m1 0h1m6 0h7m1 0h2m1 0h3m-99 1h1m2 0h1m2 0h2m3 0h2m3 0h1m1 0h1m4 0h8m1 0h1m1 0h1m4 0h2m1 0h4m1 0h1m1 0h3m1 0h1m1 0h2m4 0h1m3 0h6m2 0h2m2 0h1m2 0h1m1 0h1m1 0h1m2 0h1m3 0h1m4 0h1m2 0h1m1 0h2m-105 1h2m2 0h5m2 0h1m3 0h2m1 0h3m1 0h7m1 0h2m1 0h2m1 0h2m1 0h1m2 0h1m1 0h1m1 0h1m1 0h7m4 0h3m2 0h2m2 0h1m3 0h5m1 0h1m4 0h1m2 0h4m3 0h1m1 0h6m1 0h1m-103 1h5m3 0h1m5 0h3m1 0h2m2 0h3m3 0h2m1 0h3m1 0h1m2 0h3m5 0h1m1 0h1m3 0h3m1 0h1m3 0h2m1 0h1m1 0h3m3 0h2m3 0h1m1 0h1m2 0h1m2 0h1m1 0h1m6 0h2m1 0h1m3 0h1m1 0h1m1 0h1m-105 1h5m1 0h1m1 0h2m2 0h1m2 0h1m2 0h1m5 0h1m1 0h1m1 0h1m1 0h1m1 0h3m1 0h1m1 0h6m1 0h4m1 0h1m1 0h2m5 0h1m1 0h2m2 0h1m1 0h1m3 0h2m1 0h1m1 0h3m1 0h1m2 0h1m3 0h1m1 0h2m1 0h2m2 0h1m1 0h1m1 0h4m-103 1h1m2 0h1m3 0h1m1 0h2m2 0h1m2 0h5m1 0h2m3 0h2m1 0h1m1 0h3m5 0h1m2 0h3m1 0h1m3 0h1m1 0h2m2 0h3m4 0h1m1 0h1m1 0h4m3 0h2m1 0h1m1 0h7m1 0h1m1 0h1m1 0h2m1 0h1m3 0h1m2 0h2m-104 1h2m1 0h6m3 0h4m2 0h1m1 0h1m1 0h8m3 0h1m3 0h2m1 0h1m2 0h1m3 0h5m2 0h1m1 0h2m3 0h1m2 0h3m2 0h9m3 0h1m4 0h1m2 0h4m1 0h6m-101 1h3m1 0h2m1 0h1m1 0h3m2 0h1m2 0h3m5 0h2m1 0h1m1 0h1m1 0h2m5 0h2m2 0h1m2 0h3m3 0h3m1 0h2m2 0h4m1 0h3m1 0h3m1 0h3m2 0h1m2 0h1m1 0h1m1 0h4m1 0h3m1 0h3m5 0h1m1 0h1m-105 1h2m3 0h4m2 0h1m2 0h2m3 0h1m3 0h1m1 0h3m1 0h1m1 0h2m2 0h3m4 0h2m1 0h4m2 0h1m1 0h2m2 0h1m2 0h4m1 0h3m4 0h1m3 0h1m1 0h4m3 0h1m2 0h1m1 0h1m1 0h2m1 0h1m1 0h3m3 0h1m-104 1h1m1 0h1m2 0h1m1 0h1m1 0h1m1 0h1m1 0h2m1 0h3m1 0h4m1 0h1m4 0h2m4 0h1m4 0h1m1 0h1m1 0h2m1 0h1m2 0h1m1 0h2m1 0h1m1 0h3m3 0h2m1 0h4m1 0h1m1 0h1m1 0h2m3 0h2m1 0h4m1 0h1m1 0h1m1 0h2m1 0h2m2 0h1m1 0h2m-99 1h3m3 0h2m1 0h1m2 0h2m1 0h2m10 0h1m1 0h1m1 0h1m3 0h1m1 0h2m4 0h4m3 0h1m2 0h2m4 0h1m2 0h1m1 0h1m1 0h3m2 0h1m1 0h1m6 0h1m4 0h5m3 0h2m-99 1h1m2 0h1m2 0h1m1 0h2m1 0h1m4 0h1m2 0h1m8 0h2m2 0h2m7 0h1m4 0h1m2 0h1m2 0h1m1 0h3m2 0h6m1 0h3m1 0h1m2 0h2m7 0h2m4 0h1m3 0h5m1 0h2m1 0h3m-104 1h6m1 0h2m1 0h1m2 0h1m1 0h2m5 0h1m4 0h1m1 0h1m1 0h2m9 0h1m1 0h2m2 0h1m1 0h2m1 0h1m6 0h2m1 0h1m1 0h1m2 0h1m1 0h2m2 0h1m1 0h2m1 0h1m6 0h2m1 0h4m1 0h2m1 0h4m-102 1h3m1 0h2m2 0h2m1 0h1m3 0h3m3 0h4m1 0h6m1 0h1m3 0h6m2 0h2m1 0h1m1 0h1m4 0h1m1 0h6m1 0h1m2 0h2m1 0h1m1 0h2m5 0h1m1 0h2m1 0h1m1 0h1m2 0h1m1 0h1m2 0h1m1 0h5m1 0h1m1 0h1m-103 1h1m3 0h1m1 0h2m1 0h3m1 0h2m1 0h2m4 0h2m1 0h2m1 0h1m2 0h1m1 0h2m1 0h1m4 0h1m1 0h1m6 0h1m1 0h4m3 0h1m3 0h1m2 0h1m3 0h1m3 0h1m1 0h2m1 0h2m4 0h1m1 0h5m1 0h1m3 0h1m-99 1h3m4 0h2m2 0h5m8 0h1m1 0h4m1 0h2m2 0h1m1 0h1m1 0h5m1 0h1m1 0h2m1 0h1m1 0h2m5 0h1m2 0h1m1 0h1m1 0h5m1 0h1m7 0h2m1 0h1m1 0h2m1 0h2m5 0h1m3 0h1m2 0h2m-105 1h1m2 0h6m3 0h1m4 0h1m2 0h3m1 0h1m1 0h2m1 0h3m1 0h4m2 0h2m1 0h2m3 0h1m6 0h1m1 0h4m1 0h1m4 0h2m3 0h5m1 0h5m6 0h3m1 0h1m5 0h2m3 0h1m-104 1h1m2 0h1m1 0h1m1 0h1m6 0h2m2 0h1m1 0h6m1 0h1m3 0h3m1 0h3m2 0h4m1 0h1m6 0h1m3 0h2m2 0h1m2 0h3m3 0h3m2 0h2m5 0h2m1 0h1m1 0h1m6 0h2m1 0h1m2 0h2m1 0h2m-104 1h1m3 0h1m1 0h1m1 0h1m1 0h1m1 0h1m1 0h2m5 0h3m4 0h2m3 0h1m1 0h1m2 0h3m1 0h1m2 0h1m1 0h2m3 0h3m1 0h3m1 0h1m2 0h3m1 0h1m4 0h3m2 0h4m1 0h1m1 0h1m2 0h1m2 0h1m1 0h4m1 0h2m2 0h1m2 0h1m-104 1h1m2 0h1m2 0h2m1 0h1m2 0h1m1 0h3m1 0h1m2 0h1m1 0h2m2 0h4m2 0h5m2 0h1m1 0h1m1 0h1m1 0h1m7 0h2m3 0h4m2 0h1m4 0h2m5 0h1m3 0h4m1 0h1m2 0h2m3 0h2m3 0h1m1 0h1m1 0h1m-104 1h1m1 0h2m1 0h1m2 0h2m2 0h1m8 0h3m1 0h2m5 0h4m1 0h2m1 0h1m7 0h2m3 0h3m1 0h2m1 0h3m4 0h1m2 0h3m1 0h2m1 0h3m6 0h2m1 0h1m1 0h1m2 0h2m1 0h2m1 0h3m-102 1h1m1 0h2m1 0h1m2 0h1m1 0h2m1 0h9m4 0h2m1 0h7m1 0h2m1 0h2m2 0h2m4 0h2m1 0h2m2 0h2m1 0h3m1 0h1m2 0h2m1 0h2m1 0h2m4 0h4m1 0h1m2 0h1m4 0h1m3 0h5m1 0h1m-104 1h3m2 0h2m2 0h2m1 0h2m2 0h5m4 0h1m1 0h1m1 0h5m1 0h2m4 0h3m1 0h6m1 0h1m1 0h1m4 0h1m1 0h1m1 0h1m2 0h1m4 0h2m1 0h1m2 0h1m11 0h1m1 0h1m1 0h1m3 0h1m-99 1h1m2 0h2m2 0h2m2 0h2m1 0h6m2 0h2m5 0h1m2 0h1m1 0h2m5 0h1m3 0h4m1 0h1m2 0h5m2 0h3m3 0h4m1 0h1m1 0h2m9 0h4m2 0h1m3 0h3m6 0h2m-105 1h2m1 0h1m1 0h2m1 0h1m1 0h4m2 0h2m3 0h1m2 0h4m2 0h1m1 0h2m5 0h5m1 0h2m1 0h3m3 0h1m3 0h1m2 0h5m1 0h2m3 0h4m2 0h3m4 0h1m2 0h3m1 0h1m4 0h2m2 0h3m-104 1h4m1 0h1m2 0h1m3 0h1m3 0h3m1 0h3m1 0h1m1 0h2m2 0h1m3 0h1m1 0h3m3 0h1m4 0h3m3 0h2m4 0h1m2 0h1m1 0h1m1 0h1m3 0h1m3 0h2m3 0h1m2 0h6m5 0h2m1 0h1m3 0h3m1 0h1m-105 1h1m1 0h1m1 0h7m5 0h3m5 0h6m5 0h1m1 0h1m1 0h1m2 0h2m2 0h8m2 0h2m3 0h3m2 0h1m2 0h1m2 0h5m1 0h1m1 0h2m6 0h1m1 0h1m2 0h1m1 0h7m1 0h2m-105 1h1m1 0h1m1 0h1m3 0h1m1 0h1m3 0h1m3 0h1m1 0h1m1 0h3m3 0h1m2 0h1m3 0h3m3 0h1m2 0h1m1 0h1m1 0h1m3 0h2m1 0h3m2 0h1m3 0h2m3 0h1m2 0h1m3 0h6m2 0h4m2 0h2m3 0h2m3 0h2m1 0h2m-103 1h1m1 0h1m1 0h1m1 0h1m1 0h2m1 0h1m1 0h2m2 0h1m2 0h3m1 0h1m1 0h1m3 0h1m1 0h1m1 0h3m4 0h2m3 0h1m1 0h1m1 0h1m1 0h1m3 0h1m1 0h2m2 0h1m1 0h1m1 0h2m1 0h2m1 0h1m1 0h1m1 0h4m1 0h1m1 0h1m2 0h6m1 0h2m1 0h1m1 0h2m-102 1h1m2 0h2m3 0h1m2 0h1m1 0h6m2 0h2m1 0h1m3 0h1m4 0h4m2 0h1m3 0h1m4 0h1m3 0h1m2 0h1m1 0h2m3 0h3m2 0h1m2 0h3m3 0h1m2 0h1m2 0h1m1 0h1m1 0h2m3 0h1m2 0h1m1 0h1m3 0h4m-102 1h1m1 0h6m1 0h1m1 0h1m1 0h4m2 0h9m4 0h1m1 0h3m2 0h1m2 0h1m1 0h1m1 0h7m3 0h1m1 0h4m1 0h1m2 0h2m1 0h7m1 0h1m1 0h1m2 0h4m1 0h4m3 0h5m2 0h1m-104 1h1m2 0h1m3 0h3m1 0h1m1 0h2m1 0h1m2 0h2m4 0h1m4 0h2m2 0h1m4 0h2m4 0h1m4 0h1m1 0h1m1 0h2m1 0h1m3 0h2m1 0h1m2 0h2m1 0h1m2 0h1m2 0h1m2 0h1m1 0h1m1 0h5m2 0h1m4 0h1m1 0h3m2 0h1m1 0h1m-99 1h3m1 0h1m2 0h1m1 0h4m1 0h8m4 0h1m1 0h4m2 0h2m1 0h1m1 0h1m2 0h1m1 0h1m1 0h7m1 0h1m2 0h2m1 0h3m3 0h1m1 0h2m1 0h4m2 0h1m1 0h1m1 0h6m2 0h1m1 0h1m1 0h2m1 0h2m-104 1h1m1 0h2m3 0h1m2 0h6m1 0h6m3 0h2m1 0h3m2 0h1m1 0h1m1 0h3m2 0h2m5 0h6m1 0h1m1 0h1m2 0h2m3 0h1m2 0h3m2 0h3m1 0h1m1 0h4m1 0h1m2 0h1m3 0h4m1 0h2m2 0h1m-102 1h2m1 0h1m1 0h2m3 0h3m4 0h2m2 0h1m3 0h3m2 0h4m2 0h3m2 0h1m2 0h4m1 0h2m2 0h2m1 0h4m1 0h2m7 0h1m3 0h1m2 0h1m1 0h2m2 0h1m4 0h2m1 0h2m4 0h1m1 0h2m-102 1h3m1 0h1m3 0h2m1 0h2m1 0h1m1 0h1m3 0h1m1 0h3m3 0h2m1 0h4m1 0h1m4 0h3m1 0h1m1 0h1m1 0h1m1 0h2m3 0h2m1 0h2m3 0h2m3 0h1m2 0h1m3 0h2m1 0h1m1 0h1m2 0h2m3 0h2m1 0h1m4 0h1m3 0h2m1 0h1m-99 1h1m1 0h1m2 0h1m1 0h2m2 0h3m3 0h1m1 0h3m2 0h2m2 0h1m2 0h1m1 0h1m2 0h1m2 0h1m1 0h2m6 0h1m5 0h1m3 0h2m1 0h1m2 0h4m3 0h3m8 0h2m1 0h1m3 0h2m3 0h3m-104 1h3m7 0h4m1 0h2m1 0h1m2 0h1m1 0h4m2 0h1m1 0h4m1 0h2m1 0h1m2 0h1m3 0h6m1 0h3m1 0h1m1 0h4m1 0h3m3 0h1m8 0h1m2 0h5m6 0h3m1 0h7m-103 1h1m2 0h1m1 0h2m1 0h4m1 0h3m1 0h3m1 0h3m3 0h1m1 0h2m1 0h2m5 0h1m2 0h1m1 0h1m7 0h1m2 0h4m2 0h3m2 0h2m4 0h4m1 0h2m1 0h1m1 0h2m1 0h5m1 0h1m3 0h5m2 0h1m-104 1h3m5 0h1m1 0h1m1 0h2m2 0h1m1 0h1m3 0h3m4 0h1m1 0h4m3 0h1m1 0h4m1 0h1m1 0h3m2 0h1m2 0h2m2 0h3m1 0h1m1 0h1m1 0h2m3 0h2m1 0h4m3 0h1m1 0h1m1 0h3m2 0h1m1 0h1m2 0h3m3 0h1m1 0h1m-104 1h2m1 0h1m1 0h1m1 0h1m1 0h3m1 0h2m2 0h2m3 0h3m2 0h2m4 0h1m1 0h1m5 0h1m6 0h5m1 0h1m1 0h2m1 0h3m4 0h2m3 0h3m2 0h2m1 0h1m2 0h1m1 0h1m2 0h1m1 0h1m1 0h1m3 0h2m1 0h5m-104 1h1m8 0h1m1 0h5m1 0h1m2 0h1m2 0h10m3 0h4m1 0h1m3 0h2m2 0h1m3 0h2m1 0h1m1 0h6m1 0h2m2 0h2m1 0h2m1 0h3m3 0h5m1 0h1m3 0h1m2 0h2m2 0h2m1 0h2m1 0h1m-105 1h1m2 0h2m1 0h1m1 0h1m2 0h1m4 0h3m3 0h2m1 0h2m1 0h2m2 0h1m1 0h1m2 0h2m1 0h1m2 0h2m3 0h2m5 0h1m2 0h2m2 0h1m1 0h1m1 0h1m2 0h5m1 0h1m1 0h3m1 0h1m2 0h2m5 0h1m1 0h1m5 0h2m-101 1h2m2 0h1m6 0h1m1 0h1m2 0h2m3 0h2m3 0h1m3 0h5m3 0h6m3 0h2m1 0h1m2 0h1m1 0h1m1 0h1m1 0h1m2 0h2m2 0h2m1 0h2m1 0h2m5 0h1m1 0h1m2 0h2m1 0h1m3 0h1m1 0h1m7 0h4m-105 1h1m3 0h1m1 0h1m1 0h2m3 0h1m4 0h4m2 0h1m2 0h2m5 0h3m2 0h4m2 0h3m6 0h4m3 0h1m1 0h1m3 0h3m1 0h2m1 0h1m2 0h2m1 0h1m4 0h1m1 0h2m1 0h1m1 0h2m2 0h1m2 0h2m1 0h1m-103 1h1m1 0h2m1 0h1m2 0h1m1 0h2m1 0h2m1 0h4m1 0h1m2 0h1m3 0h1m4 0h2m2 0h1m1 0h1m2 0h3m1 0h1m3 0h2m6 0h1m1 0h1m2 0h1m1 0h1m1 0h1m1 0h5m1 0h1m1 0h1m1 0h1m2 0h3m1 0h1m2 0h1m1 0h1m2 0h2m1 0h3m1 0h2m-103 1h1m2 0h1m2 0h2m3 0h1m1 0h2m4 0h5m4 0h1m1 0h1m1 0h1m1 0h2m1 0h5m1 0h1m4 0h2m3 0h3m1 0h1m1 0h1m2 0h3m4 0h1m1 0h1m3 0h1m1 0h1m2 0h1m3 0h1m3 0h4m2 0h1m1 0h1m3 0h2m-102 1h1m1 0h1m1 0h2m1 0h1m4 0h1m1 0h2m1 0h1m3 0h1m2 0h2m1 0h3m1 0h7m1 0h2m2 0h2m1 0h1m3 0h1m2 0h1m2 0h2m2 0h1m1 0h1m3 0h1m2 0h1m3 0h1m1 0h2m4 0h1m2 0h1m3 0h1m4 0h5m1 0h1m2 0h3m-105 1h3m3 0h5m1 0h2m3 0h2m3 0h1m1 0h2m1 0h2m1 0h1m3 0h1m2 0h1m2 0h3m6 0h2m2 0h1m1 0h2m1 0h5m1 0h1m2 0h1m5 0h3m1 0h1m2 0h2m1 0h1m3 0h5m5 0h1m4 0h2m-102 1h1m1 0h2m5 0h1m2 0h6m4 0h4m1 0h1m1 0h2m5 0h2m3 0h1m1 0h7m2 0h2m5 0h4m1 0h2m7 0h2m1 0h1m3 0h1m1 0h3m7 0h3m1 0h1m3 0h1m-100 1h2m1 0h1m1 0h1m2 0h1m1 0h1m2 0h2m1 0h1m2 0h1m1 0h5m1 0h2m1 0h1m1 0h2m4 0h1m5 0h7m3 0h3m1 0h1m1 0h1m1 0h1m2 0h2m1 0h6m1 0h2m1 0h1m2 0h2m2 0h4m4 0h6m1 0h1m-96 1h2m1 0h4m2 0h2m2 0h4m3 0h1m1 0h3m7 0h2m2 0h1m1 0h3m3 0h1m4 0h3m2 0h2m1 0h1m2 0h5m3 0h3m2 0h2m1 0h1m2 0h1m2 0h1m5 0h1m3 0h2m1 0h2m-105 1h7m3 0h1m2 0h2m3 0h1m3 0h3m1 0h1m1 0h1m1 0h1m1 0h1m1 0h1m1 0h3m1 0h3m2 0h1m2 0h1m1 0h1m1 0h1m5 0h3m3 0h1m1 0h1m5 0h1m1 0h1m1 0h1m1 0h1m1 0h1m6 0h2m1 0h1m1 0h1m3 0h1m1 0h1m1 0h1m2 0h1m-104 1h1m5 0h1m3 0h2m1 0h1m3 0h1m1 0h3m2 0h1m3 0h1m3 0h11m3 0h3m3 0h2m3 0h1m1 0h1m1 0h2m2 0h3m1 0h4m3 0h3m2 0h6m4 0h1m1 0h2m1 0h1m3 0h4m-104 1h1m1 0h3m1 0h1m1 0h2m3 0h1m4 0h1m1 0h9m2 0h6m1 0h2m2 0h2m1 0h9m3 0h1m4 0h2m5 0h10m1 0h1m5 0h1m3 0h1m1 0h2m2 0h6m1 0h1m-104 1h1m1 0h3m1 0h1m1 0h3m1 0h1m1 0h1m1 0h2m2 0h3m1 0h1m5 0h2m5 0h2m2 0h3m1 0h1m1 0h5m1 0h1m1 0h1m4 0h2m1 0h1m1 0h2m5 0h1m2 0h2m1 0h1m4 0h2m1 0h1m1 0h1m4 0h1m1 0h1m1 0h1m1 0h4m-103 1h1m1 0h3m1 0h1m1 0h1m1 0h6m1 0h1m4 0h1m1 0h2m2 0h1m3 0h8m1 0h5m4 0h1m1 0h1m1 0h3m9 0h3m6 0h4m1 0h1m3 0h1m2 0h2m1 0h3m2 0h3m3 0h2m-103 1h1m5 0h1m2 0h2m1 0h2m1 0h1m1 0h2m2 0h2m1 0h4m2 0h2m1 0h1m1 0h3m1 0h1m2 0h1m4 0h1m3 0h3m1 0h1m4 0h1m1 0h1m2 0h2m3 0h5m2 0h1m3 0h3m3 0h1m5 0h2m1 0h2m1 0h1m1 0h2m-103 1h7m7 0h2m4 0h1m6 0h5m5 0h1m3 0h1m1 0h1m2 0h4m9 0h2m4 0h2m1 0h2m1 0h4m2 0h2m6 0h3m2 0h2m3 0h5m3 0h1"/></svg>
